<svg width="89" height="64" viewBox="0 0 89 64" fill="none" xmlns="http://www.w3.org/2000/svg">
<path d="M54.9412 53.7647H63.1765M54.9412 53.7647C56.8904 53.7647 58.4706 52.3162 58.4706 50.5294V5.23529C58.4706 3.44849 56.8904 2 54.9412 2H5.52941C3.58017 2 2 3.44849 2 5.23529V50.5294C2 52.3162 3.58017 53.7647 5.52941 53.7647H12.5882M54.9412 53.7647H30.216M58.4706 27.2941C58.4706 26.3195 58.4706 25.5294 60.2353 25.5294H68.7647H77.2941C78.2687 25.5294 79.0588 25.5294 80.2353 27.2941L86.0154 36.7525C86.467 37.4914 86.7059 38.3405 86.7059 39.2064V52C86.7059 52.9746 85.9158 53.7647 84.9412 53.7647H80.8235M72 44.3529C76.8731 44.3529 80.8235 48.3034 80.8235 53.1765C80.8235 58.0496 76.8731 62 72 62C67.1269 62 63.1765 58.0496 63.1765 53.1765C63.1765 48.3034 67.1269 44.3529 72 44.3529ZM21.4118 44.3529C26.2849 44.3529 30.2353 48.3034 30.2353 53.1765C30.2353 58.0496 26.2849 62 21.4118 62C16.5387 62 12.5882 58.0496 12.5882 53.1765C12.5882 48.3034 16.5387 44.3529 21.4118 44.3529Z" stroke="black" stroke-width="4"/>
</svg>
