<svg width="32" height="32" viewBox="0 0 32 32" fill="none" xmlns="http://www.w3.org/2000/svg">
<path fill-rule="evenodd" clip-rule="evenodd" d="M26.723 9.77704C27.246 10.0568 27.6555 10.4659 27.9357 10.9886L28.0384 11.1944C28.2503 11.6561 28.3713 12.2137 28.3713 13.538V21.6562L28.3653 22.3167L28.3652 22.3177C28.3212 24.604 28.0379 25.502 27.5553 26.4042C27.0262 27.3937 26.2508 28.1691 25.2613 28.6982C24.2778 29.2242 23.2991 29.5142 20.5133 29.5142H11.4863L10.8259 29.5081L10.8249 29.5081C8.53855 29.4641 7.64061 29.1808 6.73837 28.6982C5.74888 28.1691 4.97352 27.3937 4.44434 26.4042C3.94013 25.4614 3.65306 24.5222 3.62993 21.9955L3.62842 13.5379C3.62842 12.0258 3.78575 11.5089 4.06272 10.991C4.34246 10.468 4.75157 10.0585 5.27429 9.77834L5.48006 9.67559C5.90855 9.47896 6.42 9.36055 7.5498 9.3446L9.3427 9.3425V9.14274C9.3427 5.4661 12.3232 2.4856 15.9998 2.4856C19.6765 2.4856 22.657 5.4661 22.657 9.14274V9.34274H24.176C25.6882 9.34274 26.2051 9.50007 26.723 9.77704ZM24.5827 11.2316L24.1776 11.2285L7.82365 11.2284L7.41897 11.2316L7.41697 11.2316C6.69367 11.2445 6.43232 11.2975 6.16602 11.4399C5.97076 11.5443 5.82999 11.6851 5.72557 11.8803C5.57157 12.1683 5.52166 12.4521 5.5149 13.3236L5.51413 21.6562C5.51413 23.8701 5.66096 24.6805 6.10719 25.5149C6.46062 26.1758 6.9668 26.682 7.62767 27.0354C8.46205 27.4816 9.27253 27.6285 11.4863 27.6285H20.5133C22.7272 27.6285 23.5376 27.4816 24.372 27.0354C25.0329 26.682 25.5391 26.1758 25.8925 25.5149C26.3387 24.6805 26.4856 23.8701 26.4856 21.6562V13.538C26.4856 12.4959 26.4394 12.1895 26.2741 11.8803C26.1697 11.6851 26.0289 11.5443 25.8337 11.4399C25.5674 11.2975 25.306 11.2445 24.5827 11.2316ZM11.2284 9.14274V9.34274H20.7713V9.14274C20.7713 6.50755 18.635 4.37131 15.9998 4.37131C13.3647 4.37131 11.2284 6.50755 11.2284 9.14274ZM21.7141 13.9142C22.2349 13.9142 22.657 14.3363 22.657 14.857C22.657 15.3777 22.2349 15.7999 21.7141 15.7999C21.1934 15.7999 20.7713 15.3777 20.7713 14.857C20.7713 14.3363 21.1934 13.9142 21.7141 13.9142ZM10.2856 13.9142C10.8063 13.9142 11.2284 14.3363 11.2284 14.857C11.2284 15.3777 10.8063 15.7999 10.2856 15.7999C9.76483 15.7999 9.3427 15.3777 9.3427 14.857C9.3427 14.3363 9.76484 13.9142 10.2856 13.9142Z" fill="black"/>
</svg>
