<svg width="85" height="55" viewBox="0 0 85 55" fill="none" xmlns="http://www.w3.org/2000/svg">
<path d="M61.6699 44.4018L21.6786 44.4019M61.6699 44.4018L65.5819 50.1653C66.595 51.7336 68.3534 52.5215 69.5094 51.9249L69.89 51.7285C70.9862 51.1629 71.1471 49.5555 70.2969 48.0534C70.2032 47.8878 70.1088 47.7219 70.0294 47.549L67.1703 41.3292M61.6699 44.4018L62.7522 44.1668C63.9032 43.9169 65.0188 43.4609 65.9422 42.7296C66.4157 42.3546 66.8267 41.9433 67.1703 41.3292M21.6786 44.4019L20.6954 44.1763C19.5782 43.9199 18.488 43.4766 17.6265 42.7205C17.2019 42.3479 16.8408 41.9383 16.5 41.3292M21.6786 44.4019L17.8804 50.1653C16.8673 51.7336 15.1089 52.5215 13.9529 51.9249L13.5723 51.7285C12.4428 51.1457 12.3063 49.4568 13.2457 47.9166C13.2899 47.8443 13.3313 47.77 13.3667 47.693L16.5 41.3292M16.5 41.3292L13.2457 34.2445C12.9095 33.6436 12.5053 33.075 12.0394 32.5478L6.79865 26.6172L4.97493 24.7736L3.29741 23.2743C3.04128 23.0454 2.80222 22.7988 2.6421 22.5084C1.54693 20.5224 1.70324 16.8893 4.28738 15.5558L6.79865 14.3268M67.1703 41.3292L71.3108 34.27C71.647 33.6691 72.0512 33.1005 72.5171 32.5733L77.7579 26.6427L79.5816 24.7991L81.2591 23.2998C81.5152 23.0709 81.7543 22.8243 81.9144 22.5339C83.0096 20.5479 82.8533 16.9148 80.2691 15.5813L77.7579 14.3523M6.79865 14.3268C9.57873 12.8922 13.1041 14.3152 14.6727 16.7436L19.6159 24.1229C19.6159 24.1229 26.3363 21.0503 38.8671 21.0503H47.1177C59.6486 21.0503 64.5 24.1229 64.5 24.1229L69.8838 16.7691C71.4525 14.3407 74.9778 12.9177 77.7579 14.3523M6.79865 14.3268C6.79865 6.86021 16.0748 2 24.4287 2H60.1813C68.5352 2 77.7579 6.88572 77.7579 14.3523" stroke="black" stroke-width="4"/>
</svg>
