<svg width="13" height="12" viewBox="0 0 13 12" fill="none" xmlns="http://www.w3.org/2000/svg">
<path d="M11.6792 0.320844C11.2515 -0.106867 10.5581 -0.106866 10.1303 0.320844L6.00094 4.45024L1.87155 0.320846C1.44384 -0.106864 0.75038 -0.106864 0.322669 0.320846C-0.105041 0.748557 -0.105041 1.44201 0.32267 1.86972L4.45207 5.99912L0.320783 10.1304C-0.106928 10.5581 -0.106927 11.2516 0.320783 11.6793C0.748494 12.107 1.44195 12.107 1.86966 11.6793L6.00094 7.548L10.1322 11.6793C10.5599 12.107 11.2534 12.107 11.6811 11.6793C12.1088 11.2516 12.1088 10.5581 11.6811 10.1304L7.54982 5.99912L11.6792 1.86972C12.1069 1.44201 12.1069 0.748554 11.6792 0.320844Z" fill="#8E8E8E"/>
</svg>
