<svg width="79" height="54" viewBox="0 0 79 54" fill="none" xmlns="http://www.w3.org/2000/svg">
<path d="M68.3915 15.4176C68.3915 17.4386 66.1976 19.0769 63.4912 19.0769H56.9574C56.9574 22.4453 51.1324 23.9561 47.3736 23.9561H26.9554L18.5761 39.8132M68.3915 15.4176C68.3915 14.1978 69.4662 14.1978 69.4662 14.1978H75.4842C76.0777 14.1978 76.5588 14.0461 76.5588 13.859V13.3169C76.5588 13.1297 76.0777 12.978 75.4842 12.978H69.4662C68.8727 12.978 68.3915 12.5 68.3915 12.5M68.3915 15.4176V13.9588V12.5M11.2209 23.9561C7.46204 23.9561 4.41488 21.2255 4.41488 17.8572V8.09891C4.41488 4.73057 7.46204 2 11.2209 2H49.3347C53.0935 2 56.9574 3.51079 56.9574 6.87913H63.4912C66.1976 6.87913 68.3915 8.51747 68.3915 10.5385V11.5192V12.5M11.2209 23.9561L10.9909 23.9527M11.2209 23.9561H15.9848L7.13692 39.8022M18.5761 39.8132L19.6957 37.6945M18.5761 39.8132L26.9554 39.8022C29.0437 39.8022 30.7366 41.3192 30.7366 43.1905V48.6117C30.7366 50.483 29.0437 52 26.9554 52H5.78113C3.69287 52 2 50.483 2 48.6117V43.1905C2 41.3192 3.69287 39.8022 5.78113 39.8022H7.13692M7.13692 39.8022L8.6915 37.018" stroke="black" stroke-width="4"/>
</svg>
