<svg width="59" height="28" viewBox="0 0 59 28" fill="none" xmlns="http://www.w3.org/2000/svg">
<path d="M4.46594 0V18.4H0V0H4.46594Z" fill="white"/>
<path d="M7.26955 18.4V0H11.7355V7.78047H11.9791L18.087 0H23.3469L16.7969 8.21172L23.4642 18.4H18.1231L13.5219 11.1676L11.7355 13.4137V18.4H7.26955Z" fill="white"/>
<path d="M25.1085 18.4V0H37.992V3.61172H29.5744V7.38516H37.3334V11.0059H29.5744V14.7883H37.992V18.4H25.1085Z" fill="white"/>
<path d="M44.7857 18.4H39.9859L46.2202 0H52.1657L58.4 18.4H53.6003L49.2606 4.63594H49.1163L44.7857 18.4ZM44.1451 11.1586H54.1777V14.5367H44.1451V11.1586Z" fill="white"/>
<path d="M0 26.2439V20H0.900375V23.0976H0.987508L4.32761 20H5.5039L2.38164 22.8171L5.5039 26.2439H4.41474L1.82979 23.3415L0.900375 24.2195V26.2439H0Z" fill="white"/>
<path d="M6.55313 26.2439V21.561H7.38089V22.2683H7.43898C7.54064 22.0366 7.72458 21.8486 7.99082 21.7043C8.25706 21.56 8.55719 21.4878 8.8912 21.4878C8.95413 21.4878 9.03279 21.4888 9.12718 21.4909C9.22158 21.4929 9.29298 21.4959 9.34139 21.5V22.2317C9.31234 22.2256 9.24578 22.2165 9.14171 22.2043C9.04005 22.19 8.93235 22.1829 8.81859 22.1829C8.54751 22.1829 8.30547 22.2307 8.09248 22.3262C7.88191 22.4197 7.7149 22.5498 7.59146 22.7165C7.47045 22.8811 7.40994 23.0691 7.40994 23.2805V26.2439H6.55313Z" fill="white"/>
<path d="M11.998 26.3537C11.6447 26.3537 11.324 26.2978 11.0359 26.186C10.7479 26.0722 10.5192 25.9085 10.3498 25.6951C10.1803 25.4797 10.0956 25.2195 10.0956 24.9146C10.0956 24.6463 10.1586 24.4289 10.2844 24.2622C10.4103 24.0935 10.5785 23.9614 10.7891 23.8659C10.9996 23.7703 11.232 23.6992 11.4861 23.6524C11.7427 23.6037 12.0005 23.565 12.2594 23.5366C12.5983 23.5 12.873 23.4726 13.0836 23.4543C13.2966 23.4339 13.4515 23.4004 13.5483 23.3537C13.6475 23.3069 13.6971 23.2256 13.6971 23.1098V23.0854C13.6971 22.7846 13.5991 22.5508 13.4031 22.3841C13.2094 22.2175 12.9154 22.1341 12.5208 22.1341C12.1118 22.1341 11.7911 22.2094 11.5587 22.3598C11.3264 22.5102 11.163 22.6707 11.0686 22.8415L10.2554 22.5976C10.4006 22.313 10.5942 22.0915 10.8363 21.9329C11.0807 21.7724 11.347 21.6606 11.635 21.5976C11.9254 21.5325 12.211 21.5 12.4918 21.5C12.6709 21.5 12.8766 21.5183 13.109 21.5549C13.3438 21.5894 13.5701 21.6616 13.7879 21.7713C14.0081 21.8811 14.1909 22.0467 14.3361 22.2683C14.4813 22.4898 14.5539 22.7866 14.5539 23.1585V26.2439H13.6971V25.6098H13.6536C13.5955 25.7114 13.4987 25.8201 13.3631 25.936C13.2276 26.0518 13.0473 26.1504 12.8222 26.2317C12.5971 26.313 12.3224 26.3537 11.998 26.3537ZM12.1287 25.7073C12.4676 25.7073 12.7532 25.6514 12.9855 25.5396C13.2203 25.4278 13.397 25.2835 13.5156 25.1067C13.6366 24.9299 13.6971 24.7439 13.6971 24.5488V23.8902C13.6608 23.9268 13.581 23.9604 13.4575 23.9909C13.3365 24.0193 13.1961 24.0447 13.0364 24.0671C12.879 24.0874 12.7254 24.1057 12.5753 24.122C12.4276 24.1362 12.3078 24.1484 12.2159 24.1585C11.9932 24.1829 11.785 24.2226 11.5914 24.2774C11.4002 24.3303 11.2453 24.4106 11.1267 24.5183C11.0105 24.624 10.9524 24.7683 10.9524 24.9512C10.9524 25.2012 11.0626 25.3902 11.2828 25.5183C11.5055 25.6443 11.7875 25.7073 12.1287 25.7073Z" fill="white"/>
<path d="M20.0678 22.6098L19.2981 22.7927C19.2497 22.685 19.1783 22.5803 19.0839 22.4787C18.992 22.375 18.8661 22.2896 18.7064 22.2226C18.5466 22.1555 18.3421 22.122 18.0928 22.122C17.7515 22.122 17.4671 22.188 17.2396 22.3201C17.0145 22.4502 16.902 22.6159 16.902 22.8171C16.902 22.9959 16.9794 23.1372 17.1343 23.2409C17.2892 23.3445 17.5313 23.4309 17.8605 23.5L18.6882 23.6707C19.1868 23.7724 19.5583 23.9278 19.8028 24.1372C20.0473 24.3445 20.1695 24.6118 20.1695 24.939C20.1695 25.2073 20.0775 25.4472 19.8936 25.6585C19.712 25.8699 19.4579 26.0366 19.1311 26.1585C18.8044 26.2805 18.4244 26.3415 17.9912 26.3415C17.4224 26.3415 16.9516 26.2378 16.5789 26.0305C16.2061 25.8232 15.9702 25.5203 15.8709 25.122L16.6842 24.9512C16.7616 25.2033 16.908 25.3923 17.1235 25.5183C17.3413 25.6443 17.6257 25.7073 17.9766 25.7073C18.376 25.7073 18.6931 25.6362 18.9278 25.4939C19.165 25.3496 19.2836 25.1768 19.2836 24.9756C19.2836 24.813 19.2159 24.6768 19.0803 24.5671C18.9448 24.4553 18.7366 24.372 18.4559 24.3171L17.5264 24.1341C17.0157 24.0325 16.6406 23.875 16.401 23.6616C16.1638 23.4461 16.0452 23.1768 16.0452 22.8537C16.0452 22.5894 16.1335 22.3557 16.3102 22.1524C16.4893 21.9492 16.7326 21.7896 17.04 21.6738C17.3498 21.5579 17.7007 21.5 18.0928 21.5C18.6447 21.5 19.0779 21.6016 19.3925 21.8049C19.7096 22.0081 19.9347 22.2764 20.0678 22.6098Z" fill="white"/>
<path d="M22.316 23.4268V26.2439H21.4592V21.561H22.287V22.2927H22.3596C22.4903 22.0549 22.6888 21.8638 22.955 21.7195C23.2213 21.5732 23.5649 21.5 23.9861 21.5C24.3637 21.5 24.694 21.565 24.9772 21.6951C25.2604 21.8232 25.4807 22.0183 25.638 22.2805C25.7953 22.5407 25.874 22.8699 25.874 23.2683V26.2439H25.0172V23.3171C25.0172 22.9492 24.9034 22.6626 24.6759 22.4573C24.4484 22.25 24.1362 22.1463 23.7392 22.1463C23.4657 22.1463 23.2213 22.1961 23.0058 22.2957C22.7928 22.3953 22.6246 22.5407 22.5012 22.7317C22.3778 22.9228 22.316 23.1545 22.316 23.4268Z" fill="white"/>
<path d="M29.7051 26.3415C29.2017 26.3415 28.7599 26.2409 28.38 26.0396C28.0024 25.8384 27.7071 25.5569 27.4941 25.1951C27.2835 24.8333 27.1782 24.4106 27.1782 23.9268C27.1782 23.439 27.2835 23.0132 27.4941 22.6494C27.7071 22.2856 28.0024 22.003 28.38 21.8018C28.7599 21.6006 29.2017 21.5 29.7051 21.5C30.2085 21.5 30.649 21.6006 31.0266 21.8018C31.4066 22.003 31.7019 22.2856 31.9125 22.6494C32.1255 23.0132 32.232 23.439 32.232 23.9268C32.232 24.4106 32.1255 24.8333 31.9125 25.1951C31.7019 25.5569 31.4066 25.8384 31.0266 26.0396C30.649 26.2409 30.2085 26.3415 29.7051 26.3415ZM29.7051 25.6951C30.0875 25.6951 30.4022 25.6128 30.649 25.4482C30.8959 25.2835 31.0787 25.0671 31.1973 24.7988C31.3158 24.5305 31.3751 24.2398 31.3751 23.9268C31.3751 23.6138 31.3158 23.3222 31.1973 23.0518C31.0787 22.7815 30.8959 22.563 30.649 22.3963C30.4022 22.2297 30.0875 22.1463 29.7051 22.1463C29.3227 22.1463 29.008 22.2297 28.7612 22.3963C28.5143 22.563 28.3315 22.7815 28.2129 23.0518C28.0943 23.3222 28.035 23.6138 28.035 23.9268C28.035 24.2398 28.0943 24.5305 28.2129 24.7988C28.3315 25.0671 28.5143 25.2835 28.7612 25.4482C29.008 25.6128 29.3227 25.6951 29.7051 25.6951Z" fill="white"/>
<path d="M33.892 28C33.7468 28 33.6173 27.9898 33.5036 27.9695C33.3898 27.9512 33.3111 27.9329 33.2676 27.9146L33.4854 27.2805C33.6936 27.3252 33.8775 27.3415 34.0372 27.3293C34.197 27.3171 34.3386 27.2571 34.462 27.1494C34.5879 27.0437 34.7028 26.872 34.8069 26.6341L34.9667 26.2683L32.9045 21.561H33.8339L35.3733 25.2927H35.4314L36.9707 21.561H37.9001L35.533 26.9268C35.4265 27.1687 35.2946 27.3689 35.1373 27.5274C34.98 27.688 34.7972 27.8069 34.5891 27.8841C34.3834 27.9614 34.151 28 33.892 28Z" fill="white"/>
<path d="M40.5023 26.3537C40.149 26.3537 39.8283 26.2978 39.5402 26.186C39.2522 26.0722 39.0235 25.9085 38.8541 25.6951C38.6846 25.4797 38.5999 25.2195 38.5999 24.9146C38.5999 24.6463 38.6629 24.4289 38.7887 24.2622C38.9146 24.0935 39.0828 23.9614 39.2934 23.8659C39.5039 23.7703 39.7363 23.6992 39.9904 23.6524C40.247 23.6037 40.5048 23.565 40.7637 23.5366C41.1026 23.5 41.3773 23.4726 41.5879 23.4543C41.8009 23.4339 41.9558 23.4004 42.0526 23.3537C42.1518 23.3069 42.2014 23.2256 42.2014 23.1098V23.0854C42.2014 22.7846 42.1034 22.5508 41.9074 22.3841C41.7137 22.2175 41.4197 22.1341 41.0251 22.1341C40.6161 22.1341 40.2954 22.2094 40.063 22.3598C39.8307 22.5102 39.6673 22.6707 39.5729 22.8415L38.7597 22.5976C38.9049 22.313 39.0985 22.0915 39.3406 21.9329C39.585 21.7724 39.8513 21.6606 40.1393 21.5976C40.4297 21.5325 40.7153 21.5 40.9961 21.5C41.1752 21.5 41.3809 21.5183 41.6133 21.5549C41.8481 21.5894 42.0744 21.6616 42.2922 21.7713C42.5124 21.8811 42.6952 22.0467 42.8404 22.2683C42.9856 22.4898 43.0582 22.7866 43.0582 23.1585V26.2439H42.2014V25.6098H42.1579C42.0998 25.7114 42.003 25.8201 41.8674 25.936C41.7319 26.0518 41.5516 26.1504 41.3265 26.2317C41.1014 26.313 40.8267 26.3537 40.5023 26.3537ZM40.633 25.7073C40.9719 25.7073 41.2575 25.6514 41.4898 25.5396C41.7246 25.4278 41.9013 25.2835 42.0199 25.1067C42.1409 24.9299 42.2014 24.7439 42.2014 24.5488V23.8902C42.1651 23.9268 42.0852 23.9604 41.9618 23.9909C41.8408 24.0193 41.7004 24.0447 41.5407 24.0671C41.3833 24.0874 41.2296 24.1057 41.0796 24.122C40.9319 24.1362 40.8121 24.1484 40.7202 24.1585C40.4975 24.1829 40.2893 24.2226 40.0957 24.2774C39.9045 24.3303 39.7496 24.4106 39.631 24.5183C39.5148 24.624 39.4567 24.7683 39.4567 24.9512C39.4567 25.2012 39.5669 25.3902 39.7871 25.5183C40.0098 25.6443 40.2918 25.7073 40.633 25.7073Z" fill="white"/>
<path d="M44.6221 26.2439V21.561H45.4499V22.2683H45.5079C45.6096 22.0366 45.7935 21.8486 46.0598 21.7043C46.326 21.56 46.6262 21.4878 46.9602 21.4878C47.0231 21.4878 47.1018 21.4888 47.1961 21.4909C47.2905 21.4929 47.3619 21.4959 47.4103 21.5V22.2317C47.3813 22.2256 47.3147 22.2165 47.2107 22.2043C47.109 22.19 47.0013 22.1829 46.8875 22.1829C46.6165 22.1829 46.3744 22.2307 46.1614 22.3262C45.9509 22.4197 45.7839 22.5498 45.6604 22.7165C45.5394 22.8811 45.4789 23.0691 45.4789 23.2805V26.2439H44.6221Z" fill="white"/>
<path d="M52.376 22.6098L51.6063 22.7927C51.5579 22.685 51.4865 22.5803 51.3921 22.4787C51.3002 22.375 51.1743 22.2896 51.0146 22.2226C50.8548 22.1555 50.6503 22.122 50.401 22.122C50.0597 22.122 49.7753 22.188 49.5478 22.3201C49.3227 22.4502 49.2102 22.6159 49.2102 22.8171C49.2102 22.9959 49.2876 23.1372 49.4425 23.2409C49.5974 23.3445 49.8395 23.4309 50.1687 23.5L50.9964 23.6707C51.495 23.7724 51.8665 23.9278 52.111 24.1372C52.3554 24.3445 52.4777 24.6118 52.4777 24.939C52.4777 25.2073 52.3857 25.4472 52.2018 25.6585C52.0202 25.8699 51.7661 26.0366 51.4393 26.1585C51.1126 26.2805 50.7326 26.3415 50.2994 26.3415C49.7306 26.3415 49.2598 26.2378 48.8871 26.0305C48.5143 25.8232 48.2783 25.5203 48.1791 25.122L48.9924 24.9512C49.0698 25.2033 49.2162 25.3923 49.4317 25.5183C49.6495 25.6443 49.9339 25.7073 50.2848 25.7073C50.6842 25.7073 51.0013 25.6362 51.236 25.4939C51.4732 25.3496 51.5918 25.1768 51.5918 24.9756C51.5918 24.813 51.5241 24.6768 51.3885 24.5671C51.253 24.4553 51.0448 24.372 50.7641 24.3171L49.8346 24.1341C49.3239 24.0325 48.9488 23.875 48.7092 23.6616C48.472 23.4461 48.3534 23.1768 48.3534 22.8537C48.3534 22.5894 48.4417 22.3557 48.6184 22.1524C48.7975 21.9492 49.0408 21.7896 49.3481 21.6738C49.658 21.5579 50.0089 21.5 50.401 21.5C50.9529 21.5 51.3861 21.6016 51.7007 21.8049C52.0178 22.0081 52.2429 22.2764 52.376 22.6098Z" fill="white"/>
<path d="M54.5661 24.5366L54.5516 23.6463H54.7259L57.1656 21.561H58.2257L55.6263 23.7683H55.5537L54.5661 24.5366ZM53.7674 26.2439V20H54.6242V26.2439H53.7674ZM57.3108 26.2439L55.1325 23.9268L55.7424 23.4268L58.4 26.2439H57.3108Z" fill="white"/>
</svg>
