<svg width="21" height="18" viewBox="0 0 21 18" fill="none" xmlns="http://www.w3.org/2000/svg">
<path d="M5.44525 0.428589L15.7728 0.430111C17.1227 0.446487 17.8269 0.597171 18.5574 0.987833C19.2655 1.36653 19.8264 1.92738 20.2051 2.63548C20.6201 3.41161 20.7643 4.15817 20.7643 5.68096V12.3191C20.7643 13.8419 20.6201 14.5884 20.2051 15.3646C19.8264 16.0727 19.2655 16.6335 18.5574 17.0122C17.7813 17.4273 17.0347 17.5714 15.5119 17.5714H5.44525C3.92245 17.5714 3.1759 17.4273 2.39977 17.0122C1.69166 16.6335 1.13081 16.0727 0.752116 15.3646C0.337037 14.5884 0.192871 13.8419 0.192871 12.3191L0.194393 5.42013C0.210769 4.07023 0.361453 3.36596 0.752116 2.63548C1.13081 1.92738 1.69166 1.36653 2.39977 0.987833C3.1759 0.572755 3.92245 0.428589 5.44525 0.428589ZM18.7819 3.62403L12.903 9.50212C11.6086 10.7964 9.53696 10.8396 8.19082 9.63155L8.05422 9.50212L2.1753 3.62403C1.97865 4.06527 1.90716 4.56996 1.90716 5.68096V12.3191C1.90716 13.5831 1.99969 14.0623 2.2638 14.5561C2.48272 14.9655 2.79886 15.2816 3.20822 15.5005C3.64395 15.7336 4.06829 15.833 5.03041 15.8532L5.44525 15.8572H15.5119C16.7759 15.8572 17.2551 15.7646 17.749 15.5005C18.1583 15.2816 18.4744 14.9655 18.6934 14.5561C18.9264 14.1204 19.0259 13.696 19.046 12.7339L19.05 12.3191V5.68096C19.05 4.56996 18.9785 4.06527 18.7819 3.62403ZM15.5119 2.14287H5.44525C4.33424 2.14287 3.82955 2.21437 3.38831 2.41101L9.2664 8.28994C9.90064 8.92417 10.9082 8.95755 11.5817 8.39008L11.6908 8.28994L17.5689 2.41101C17.1276 2.21437 16.6229 2.14287 15.5119 2.14287Z" fill="#8E8E8E"/>
</svg>
