<svg width="602" height="384" viewBox="0 0 602 384" fill="none" xmlns="http://www.w3.org/2000/svg">
<path d="M322.764 115.207C398.083 142.621 448.478 182.345 448.478 182.345L494.081 149.502C508.738 138.567 532.992 137.86 546.613 152.43M322.764 115.207L348.655 96.5711L341.846 62.7798L366.091 48.6652L386.268 11.4801L467.188 40.9324C517.401 59.2084 562.691 108.256 546.613 152.43M322.764 115.207L327.394 154.985L297.751 183.931L307.111 210.712L281.999 227.209L289.098 260.203L392.413 297.806M392.413 297.806L408.129 299.813C409.254 299.956 410.398 299.857 411.486 299.533C419.073 297.274 424.119 296.094 430.156 290.957M392.413 297.806L402.832 340.213C405.545 351.708 414.417 360.216 422.65 359.216L425.361 358.887C433.405 357.91 437.862 348.216 435.532 337.049C435.422 336.525 435.333 335.995 435.286 335.462L430.156 290.957M430.156 290.957L464.972 256.162C468.287 253.343 471.941 250.863 475.877 248.763L520.148 225.142L535.08 218.225L548.391 213.024C550.424 212.23 552.392 211.295 553.979 209.927C564.839 200.573 571.722 178.737 559.061 165.195L546.613 152.43" stroke="black" stroke-width="4"/>
<path d="M234.12 125.943C155.224 125.943 112.912 145.289 112.912 145.289L81.7889 98.8276C71.9125 83.5382 49.7166 74.5787 32.2129 83.6111M234.12 125.943L251.794 98.8276L234.12 71.9353L251.794 45.3076L255.765 6H143.214C90.6166 6 32.2129 36.6005 32.2129 83.6111M234.12 125.943L251.794 160.993L234.12 198.333L251.794 221.558L234.12 245.649L251.794 272.967L125.899 272.968M125.899 272.968L110.73 269.487C109.612 269.231 108.563 268.735 107.648 268.045C101.407 263.34 97.1438 260.503 93.2939 253.622M125.899 272.968L101.985 309.255C95.6065 319.129 84.5353 324.09 77.2569 320.334L74.8607 319.097C67.749 315.428 66.8898 304.794 72.8047 295.097C73.0825 294.642 73.3434 294.174 73.5663 293.689L93.2939 253.622M93.2939 253.622L72.8047 209.016C70.6879 205.232 68.1428 201.652 65.2093 198.333L32.2129 160.993L20.7305 149.386L10.1686 139.946C8.55604 138.504 7.0509 136.952 6.04272 135.124C-0.852598 122.619 0.131569 99.7451 16.4016 91.3493L32.2129 83.6111" stroke="black" stroke-width="4"/>
</svg>
