<svg width="32" height="32" viewBox="0 0 32 32" fill="none" xmlns="http://www.w3.org/2000/svg">
<path d="M5.99341 5.49759C2.09943 9.78185 4.17932 16.4115 9.89768 22.1562C15.4944 27.7787 22.4228 29.8808 26.5229 26.0659C28.766 23.9788 28.4345 20.2829 25.6635 17.8128L25.4104 17.5977C22.8395 15.516 19.1079 15.5094 16.8288 17.5616L16.712 17.6712L16.6457 17.6155C16.3967 17.4032 16.0726 17.1077 15.6812 16.7185L15.2851 16.3159L14.8767 15.8809C14.7542 15.7468 14.6452 15.6237 14.5492 15.512L14.3845 15.3169L14.2918 15.4172C16.5414 13.1572 16.5626 9.13212 14.2995 6.42816C11.7863 3.42538 7.97427 3.3182 5.99341 5.49759V5.49759ZM12.4616 7.96665C14.0336 9.84492 13.8579 12.4555 12.5931 13.7261L12.3959 13.9121C11.5568 14.667 10.7376 15.112 13.771 18.1967C17.0438 21.5249 17.4518 20.3574 18.3044 19.4648C19.6436 18.1194 22.266 17.9953 24.0687 19.6022C26.0623 21.3792 25.8463 23.4215 24.8903 24.311C21.932 27.0636 16.2667 25.1571 11.5963 20.4651C6.92587 15.7732 4.85314 10.3158 7.76701 7.10984C8.44346 6.36559 10.5649 5.70042 12.4616 7.96665V7.96665Z" fill="black"/>
</svg>
