<svg width="19" height="18" viewBox="0 0 19 18" fill="none" xmlns="http://www.w3.org/2000/svg">
<path d="M1.97358 1.12319C-0.946909 4.33638 0.613005 9.30861 4.90177 13.6172C9.09929 17.834 14.2956 19.4106 17.3707 16.5495C19.0531 14.9841 18.8044 12.2121 16.7261 10.3596L16.5363 10.1983C14.6081 8.63698 11.8095 8.63202 10.1001 10.1712L10.0125 10.2534L9.96282 10.2116C9.77601 10.0524 9.53296 9.83075 9.23939 9.53886L8.94231 9.23691L8.63601 8.91067C8.54416 8.81008 8.46242 8.71776 8.39038 8.634L8.26686 8.48766L8.19734 8.56287C9.88454 6.86789 9.90047 3.84909 8.20316 1.82112C6.31826 -0.430966 3.45922 -0.511352 1.97358 1.12319V1.12319ZM6.8247 2.97499C8.00372 4.38369 7.87193 6.34164 6.92337 7.29457L6.77545 7.43409C6.14611 8.00023 5.53174 8.33401 7.80674 10.6475C10.2613 13.1437 10.5674 12.268 11.2068 11.5986C12.2112 10.5896 14.178 10.4965 15.5301 11.7016C17.0252 13.0344 16.8633 14.5661 16.1462 15.2333C13.9275 17.2977 9.67857 15.8678 6.17574 12.3489C2.67292 8.82988 1.11837 4.73682 3.30377 2.33238C3.81111 1.77419 5.40216 1.27531 6.8247 2.97499V2.97499Z" fill="#8E8E8E"/>
</svg>
