<svg width="16" height="19" viewBox="0 0 16 19" fill="none" xmlns="http://www.w3.org/2000/svg">
<path d="M8.47852 0C12.6265 0 15.9785 3.43256 15.9785 7.5C15.9785 10.3504 14.1351 13.6715 10.5439 17.5948C10.4882 17.6556 10.4299 17.7139 10.3691 17.7696C9.22837 18.8138 7.45719 18.7355 6.41312 17.5948C2.82194 13.6715 0.978516 10.3504 0.978516 7.5C0.978516 3.43256 4.33056 0 8.47852 0ZM8.47852 1.5C5.0967 1.5 2.47852 4.32518 2.47852 7.5C2.47852 9.88319 4.15887 12.9105 7.51957 16.582C8.00433 17.1116 8.82666 17.1479 9.35628 16.6632C9.38451 16.6373 9.41159 16.6102 9.43744 16.582C12.7982 12.9105 14.4785 9.88319 14.4785 7.5C14.4785 4.32518 11.8603 1.5 8.47852 1.5ZM8.47852 4C10.4109 4 11.9785 5.56757 11.9785 7.5C11.9785 9.43243 10.4109 11 8.47852 11C6.54609 11 4.97852 9.43243 4.97852 7.5C4.97852 5.56757 6.54609 4 8.47852 4ZM8.47852 5.5C7.37452 5.5 6.47852 6.396 6.47852 7.5C6.47852 8.604 7.37452 9.5 8.47852 9.5C9.58252 9.5 10.4785 8.604 10.4785 7.5C10.4785 6.396 9.58252 5.5 8.47852 5.5Z" fill="#8E8E8E"/>
</svg>
