<svg width="14" height="14" viewBox="0 0 14 14" fill="none" xmlns="http://www.w3.org/2000/svg">
<path d="M10.1854 9.12641L10.1329 9.19586L10.1944 9.25745L13.373 12.4366L13.373 12.4366C13.6315 12.6951 13.6315 13.1142 13.373 13.3727C13.1145 13.6312 12.6954 13.6312 12.4369 13.3727L12.4369 13.3727L9.2577 10.1942L9.19611 10.1326L9.12666 10.1852C8.21759 10.8729 7.08523 11.2809 5.85731 11.2809C2.86182 11.2809 0.433496 8.85255 0.433496 5.85706C0.433496 2.86157 2.86182 0.433252 5.85731 0.433252C8.85279 0.433252 11.2811 2.86157 11.2811 5.85706C11.2811 7.08499 10.8732 8.21735 10.1854 9.12641ZM5.85731 1.75706C3.59294 1.75706 1.75731 3.59269 1.75731 5.85706C1.75731 8.12143 3.59294 9.95706 5.85731 9.95706C8.12167 9.95706 9.9573 8.12143 9.9573 5.85706C9.9573 3.59269 8.12167 1.75706 5.85731 1.75706Z" fill="#8E8E8E" stroke="#ECECEC" stroke-width="0.2"/>
</svg>
