<svg width="25" height="24" viewBox="0 0 25 24" fill="none" xmlns="http://www.w3.org/2000/svg">
<path d="M22.6717 0.994201C22.3467 1.00854 22.0439 1.10321 21.7773 1.21098C21.5276 1.31143 20.5734 1.72067 19.0705 2.36516C17.5663 3.01022 15.5746 3.86533 13.4499 4.779C9.20067 6.60633 4.42337 8.66327 1.97642 9.71603C1.88441 9.7556 1.56335 9.85817 1.22259 10.1242C0.881826 10.3902 0.519531 10.9415 0.519531 11.5557C0.519531 12.051 0.755576 12.5431 1.05268 12.8368C1.34979 13.1306 1.66417 13.2757 1.93346 13.3856C2.91053 13.7843 5.94086 15.0244 6.5131 15.2585C6.71449 15.8754 7.81133 19.2306 8.06569 20.0529C8.23337 20.5956 8.39298 20.9355 8.6008 21.2052C8.7047 21.34 8.82549 21.4582 8.97185 21.5508C9.03036 21.5879 9.09451 21.6164 9.15934 21.6426L9.16324 21.6446C9.17818 21.6506 9.19106 21.6608 9.20621 21.6661C9.23479 21.6761 9.25391 21.6773 9.29214 21.6856C9.44445 21.7348 9.59822 21.7657 9.73545 21.7657C10.3206 21.7657 10.6787 21.4434 10.6787 21.4434L10.7002 21.4278L13.7097 18.8245L17.3597 22.2773C17.4111 22.35 17.8904 23.0077 18.9475 23.0077C19.5751 23.0077 20.073 22.6928 20.3926 22.3574C20.7123 22.022 20.9114 21.6697 20.9961 21.2267V21.2247C21.0753 20.8061 24.4391 3.53693 24.4391 3.53693L24.4333 3.56036C24.5317 3.11089 24.5576 2.69231 24.4489 2.27924C24.3402 1.86617 24.0539 1.47067 23.699 1.25785C23.344 1.04507 22.9968 0.979861 22.6717 0.994201ZM22.4842 3.08385C22.4794 3.11303 22.4878 3.09835 22.4803 3.13267L22.4784 3.14439L22.4764 3.15611C22.4764 3.15611 19.1543 20.2044 19.0314 20.8536C19.0404 20.8046 18.9994 20.9021 18.9572 20.9611C18.8977 20.92 18.7756 20.8673 18.7756 20.8673L18.7561 20.8458L13.7702 16.1295L10.2452 19.1761L11.2939 14.9773C11.2939 14.9773 17.8495 8.19125 18.2444 7.79629C18.5624 7.48032 18.6291 7.37017 18.6291 7.26119C18.6291 7.1152 18.5531 7.00926 18.3831 7.00926C18.2301 7.00926 18.0244 7.15799 17.9144 7.22799C16.4814 8.14144 10.1904 11.8079 7.37044 13.4481C6.9223 13.2647 3.80888 11.9903 2.75369 11.5596C2.76168 11.5561 2.75905 11.5573 2.76736 11.5537C5.21495 10.5007 9.99026 8.44379 14.2389 6.61671C16.3633 5.70318 18.3565 4.84742 19.8595 4.20288C21.3393 3.56827 22.3676 3.13151 22.4842 3.08385Z" fill="#8E8E8E"/>
</svg>
