<svg width="32" height="32" viewBox="0 0 32 32" fill="none" xmlns="http://www.w3.org/2000/svg">
<path d="M19.8001 10.5999C19.8001 8.50014 18.0999 6.7999 16.0001 6.7999C13.9004 6.7999 12.2001 8.50014 12.2001 10.5999C12.2001 12.6997 13.9004 14.3999 16.0001 14.3999C18.0999 14.3999 19.8001 12.6997 19.8001 10.5999ZM22.2001 10.5999C22.2001 14.0251 19.4254 16.7999 16.0001 16.7999C12.5749 16.7999 9.80013 14.0251 9.80013 10.5999C9.80013 7.17466 12.5749 4.3999 16.0001 4.3999C19.4254 4.3999 22.2001 7.17466 22.2001 10.5999ZM7.8668 24.5713C7.8668 25.5965 7.74578 25.4666 8.31386 25.4666H23.6864C24.2545 25.4666 24.1335 25.5965 24.1335 24.5713C24.1335 22.0479 20.4292 20.5332 16.0001 20.5332C11.5711 20.5332 7.8668 22.0479 7.8668 24.5713ZM5.4668 24.5713C5.4668 20.1356 10.3638 18.1332 16.0001 18.1332C21.6364 18.1332 26.5335 20.1356 26.5335 24.5713C26.5335 26.8855 25.6194 27.8666 23.6864 27.8666H8.31386C6.38085 27.8666 5.4668 26.8855 5.4668 24.5713Z" fill="black"/>
</svg>
