<svg width="25" height="24" viewBox="0 0 25 24" fill="none" xmlns="http://www.w3.org/2000/svg">
<path d="M21.8124 2.49525C21.1839 1.95493 18.6426 0.231604 12.9799 0.206998C12.9799 0.206998 6.3039 -0.166997 3.05184 2.61926C1.23916 4.31208 0.602244 6.78143 0.534757 9.85409C0.466214 12.9189 0.379745 18.6666 6.31972 20.2275H6.32499L6.31972 22.6053C6.31972 22.6053 6.28387 23.5689 6.96191 23.7647C7.78336 24.0009 8.26527 23.2687 9.04981 22.4823C9.4811 22.0503 10.0748 21.4115 10.5229 20.9253C14.5838 21.2422 17.7072 20.5159 18.0615 20.4086C18.8809 20.1586 23.5196 19.6055 24.2757 13.8558C25.0539 7.92999 23.8992 4.18118 21.8103 2.49132V2.49525H21.8124ZM22.4999 13.4316C21.8514 18.2306 18.0879 18.5367 17.4067 18.7424C17.1062 18.8329 14.3539 19.4687 10.9068 19.2591C10.9068 19.2591 8.32854 22.1536 7.53766 22.9055C7.41007 23.0246 7.2519 23.0689 7.15699 23.0482C7.01464 23.0197 6.98405 22.8711 6.98405 22.6506L6.99987 18.7079C6.98406 18.7079 6.99987 18.7079 6.99987 18.7079C1.96887 17.393 2.27046 12.5065 2.33373 9.93873C2.38012 7.38375 2.90105 5.28741 4.43639 3.86919C7.18968 1.53566 12.8692 1.88898 12.8692 1.88898C17.6598 1.90473 19.9565 3.2521 20.4858 3.70581C22.251 5.11518 23.1526 8.49393 22.4936 13.4425L22.4999 13.4316V13.4316ZM8.02906 5.09353C8.28425 5.09353 8.51307 5.20081 8.69234 5.39962C8.69656 5.40159 9.30395 6.08364 9.56757 6.41728C9.81538 6.73222 10.1486 7.23416 10.3173 7.51466C10.6178 8.0166 10.427 8.53035 10.1359 8.74293L9.5391 9.18582C9.23857 9.4112 9.27548 9.8285 9.27548 9.8285C9.27548 9.8285 10.1613 12.9356 13.4502 13.719C13.4502 13.719 13.8994 13.7574 14.1399 13.4769L14.6154 12.9169C14.8401 12.6364 15.3894 12.4593 15.9272 12.7388C16.2278 12.8864 16.7656 13.1974 17.1041 13.4317C17.4615 13.6679 18.1923 14.2446 18.1965 14.2446C18.5445 14.5113 18.6225 14.9227 18.3863 15.3361V15.3518C18.1438 15.7504 17.8158 16.1195 17.4014 16.4748H17.393C17.0619 16.7405 16.7297 16.8881 16.3975 16.9167C16.3659 16.9167 16.3185 16.9324 16.2541 16.9167C16.1118 16.9167 15.9694 16.8882 15.8281 16.8567V16.8429C15.322 16.71 14.4836 16.3705 13.0906 15.6461C12.189 15.1747 11.4309 14.7013 10.7824 14.2141C10.4502 13.9631 10.1022 13.6826 9.75316 13.3578L9.67302 13.3303L9.64138 13.3008L9.6108 13.2722C9.26177 12.9474 8.96229 12.6226 8.69234 12.3077C8.18618 11.7083 7.68002 11.0017 7.17492 10.1533C6.39986 8.85415 6.03606 8.07171 5.89371 7.59831H5.87683C5.82938 7.46644 5.79775 7.33356 5.81356 7.2007C5.79775 7.14067 5.81356 7.09736 5.81356 7.06193C5.8452 6.76766 6.01286 6.45764 6.29652 6.13285H6.3018C6.67614 5.74902 7.08001 5.43998 7.51025 5.2146C7.68318 5.12504 7.85718 5.08174 8.01535 5.08174H8.03222L8.02906 5.09355L8.02906 5.09353ZM12.3472 4.42133H12.4695L12.5497 4.4233H12.5708L12.6646 4.42822H13.2035L13.3458 4.44298H13.4239L13.582 4.45873H13.6137L13.7233 4.47349H13.7402L13.8182 4.48825C13.8668 4.48825 13.8984 4.504 13.929 4.504H14.0249L14.104 4.53254L14.1673 4.54828L14.2306 4.56305L14.2622 4.57781H14.3096L14.3581 4.59355H14.3887L14.4668 4.6093L14.5142 4.62308L14.5627 4.63882L14.626 4.65457L14.6576 4.66835C14.6893 4.66835 14.7209 4.6841 14.7536 4.6841L14.8 4.69886L14.8485 4.7146L14.974 4.75791L15.0383 4.78841L15.1807 4.84746L15.2281 4.86223L15.2756 4.87797L15.3705 4.92226L15.4348 4.93702L15.4654 4.95178L15.5455 4.98229L15.5761 4.99607L15.6404 5.02658L15.6879 5.04036L15.7353 5.06988L15.7975 5.0994L15.846 5.12795L15.8777 5.14369L15.942 5.17322L15.9884 5.20274L16.0675 5.24703L16.1149 5.26277L16.193 5.30608L16.2098 5.32084L16.2573 5.35135L16.3522 5.42417L16.4007 5.4537L16.4471 5.48322L16.4798 5.497L16.5272 5.52751L16.6053 5.60034L16.6696 5.64462L16.717 5.67415L16.7339 5.68891L16.7645 5.70465L16.8425 5.76469L16.891 5.80799L16.9227 5.83751L16.9701 5.86605L17.0176 5.89656L17.0482 5.91133L17.1747 6.02942L17.238 6.08946L17.3803 6.22232L17.413 6.25086C17.4299 6.2666 17.4605 6.29514 17.4773 6.32467L17.5079 6.35419L17.683 6.54512L17.7304 6.60416C17.7452 6.61991 17.7452 6.63467 17.761 6.63467L17.8559 6.76753L17.9034 6.81182L17.9983 6.92992L18.0784 7.04801L18.1259 7.13659L18.1881 7.23992L18.2355 7.3285L18.2524 7.35704L18.283 7.41707L18.3631 7.56469L18.4411 7.71133L18.4738 7.78514C18.5361 7.918 18.5835 8.05087 18.6468 8.1985C18.7248 8.39043 18.7891 8.59612 18.8366 8.81855C18.884 8.98093 18.9167 9.12857 18.9473 9.29096L18.9779 9.55669L19.0253 9.85195C19.0422 9.97103 19.058 10.1039 19.058 10.221C19.0728 10.3401 19.0728 10.4572 19.0728 10.5744V10.8263C19.0728 10.8421 19.0665 10.8548 19.058 10.8706C19.0412 10.9001 19.0253 10.9149 18.9937 10.9444C18.9716 10.9592 18.942 10.9897 18.9093 10.9897C18.8788 11.0035 18.8471 11.0035 18.8144 11.0035H18.767C18.7364 11.0035 18.7048 10.9897 18.6721 10.9749C18.6415 10.9592 18.6078 10.9454 18.5941 10.9149C18.5772 10.8863 18.5466 10.8548 18.5297 10.8263C18.5129 10.7978 18.497 10.7673 18.497 10.7377V10.3844C18.4823 10.1787 18.4665 9.96612 18.4348 9.7555C18.418 9.61182 18.3874 9.47599 18.3705 9.34214C18.3705 9.26931 18.3536 9.19846 18.3399 9.13645L18.3093 8.98882L18.2693 8.85006L18.2524 8.76148L18.2049 8.61386C18.1744 8.49577 18.1269 8.37766 18.0795 8.25955C18.0489 8.17 18.0151 8.09717 17.9687 8.02433L17.9382 7.94954L17.7958 7.6838L17.7631 7.63952C17.6988 7.50666 17.6207 7.37378 17.5258 7.25469L17.4784 7.18187H17.2664L17.199 7.09231C17.141 7.00472 17.0787 6.92993 17.0091 6.85709L16.8773 6.70947L16.8615 6.69372L16.813 6.63762L16.7761 6.59334L16.697 6.52051L16.6812 6.49099L16.6074 6.43194L16.5599 6.38667L16.4724 6.31286L16.4302 6.27644L16.3817 6.23215L16.3659 6.21641C16.349 6.20165 16.3184 6.17212 16.2868 6.15736L16.2067 6.09634L16.175 6.08158L16.1107 6.03631L16.0327 5.97726L15.9852 5.94183L15.9536 5.92609L15.8903 5.87393C15.8903 5.85818 15.8735 5.85818 15.8576 5.85818L15.827 5.82964L15.8112 5.81389V5.8011L15.7796 5.78732L15.7153 5.75091L15.6689 5.7204L15.5898 5.67611L15.5265 5.63183L15.4959 5.61608L15.4622 5.60329H15.3673L15.3473 5.58754L15.2787 5.55309L15.2692 5.53932L15.2376 5.52357L15.1901 5.5029H15.1775L15.13 5.48716L15.1037 5.47239L15.0562 5.45763L15.0457 5.44681L15.014 5.43106L14.9581 5.40252L14.9265 5.38776L14.8316 5.35823L14.7536 5.32969L14.6091 5.31395L14.5627 5.28541C14.5469 5.27556 14.5311 5.26966 14.5142 5.26966L14.4836 5.2549C14.453 5.24407 14.4362 5.23915 14.4045 5.22537L14.3729 5.20963H14.3423L14.278 5.18109L14.2474 5.16534L14.2 5.15058H14.1029C14.0945 5.15058 14.0829 5.14566 14.0713 5.14369H13.9764L13.929 5.12794H13.9131L13.8657 5.1122H13.8225C13.7961 5.09842 13.775 5.09842 13.7486 5.09842L13.7381 5.08267L13.6748 5.06791C13.6432 5.05216 13.6158 5.05216 13.5862 5.05216L13.5388 5.0374L13.4861 5.02166L13.4386 5.00788L13.3743 4.99213H13.31L13.1212 4.97048H13.0263L12.904 4.95572H12.8238L12.7521 4.94784H12.7205L12.6636 4.9321H12.363L12.3525 4.91734H12.2882C12.2565 4.91734 12.2207 4.90257 12.1933 4.88781C12.1616 4.87207 12.1289 4.85927 12.1078 4.82876L12.0762 4.78349C12.0456 4.75495 12.0456 4.72444 12.0288 4.69492C12.014 4.66736 12.014 4.63685 12.014 4.60733C12.014 4.57781 12.014 4.54828 12.0298 4.51876C12.0467 4.49022 12.0604 4.45971 12.0941 4.44495C12.11 4.41542 12.1405 4.40164 12.1722 4.3859C12.2028 4.37015 12.2365 4.35637 12.2671 4.35637H12.3314L12.3472 4.42133L12.3472 4.42133ZM12.9314 5.97045L12.9704 5.97341L13.0348 5.97931C13.0432 5.97931 13.0537 5.97931 13.0653 5.98226C13.0885 5.98226 13.1128 5.9862 13.1444 5.98817L13.2077 5.99604L13.233 6.01179L13.2805 6.02655L13.3311 6.04131L13.3785 6.05706H13.4102L13.4544 6.07182L13.5283 6.08658L13.5873 6.10233L13.6147 6.11611H13.6917L13.8172 6.14366L13.8657 6.15842L13.9132 6.17319L13.9606 6.18893C13.9606 6.18893 13.9764 6.18893 13.9764 6.2037L14.0249 6.21846L14.0713 6.2342L14.1188 6.24995C14.1346 6.24995 14.1504 6.26373 14.1673 6.26373C14.1747 6.26373 14.182 6.27947 14.1936 6.27947L14.2611 6.309H14.2917L14.3866 6.33852L14.4393 6.36706L14.4879 6.39659L14.6017 6.44087L14.665 6.45564L14.6977 6.48615C14.7452 6.49992 14.7926 6.52945 14.8401 6.54421L14.8907 6.57373L14.9413 6.60326L14.993 6.6318C15.0404 6.66132 15.0794 6.67707 15.1205 6.70659L15.1511 6.72037L15.1944 6.75088L15.2176 6.76564L15.2967 6.80993L15.3357 6.83945L15.4042 6.88177L15.4348 6.89653L15.4664 6.9113L15.5149 6.94082L15.5782 6.98609C15.594 6.99987 15.6014 6.99987 15.6141 7.01463C15.6246 7.02939 15.6309 7.02939 15.6404 7.04416L15.6752 7.07368L15.7132 7.10222L15.7448 7.13175L15.7933 7.17702L15.8239 7.20654L15.8408 7.22229L15.9357 7.30988L15.9525 7.32562C15.9525 7.34038 15.9684 7.35515 15.9831 7.35515L16 7.36794L16.0475 7.41321L16.078 7.4575L16.1097 7.48702L16.1571 7.54607L16.2056 7.59134L16.3005 7.70845L16.3153 7.737L16.3796 7.81179L16.3965 7.84033L16.4123 7.87084L16.4281 7.89938L16.445 7.9289C16.4619 7.94367 16.4619 7.95843 16.4756 7.98795L16.5209 8.06275L16.5378 8.07751L16.5684 8.13754L16.6011 8.18085C16.6158 8.19561 16.6158 8.20939 16.6316 8.22513L16.6633 8.26942L16.6949 8.32945L16.7255 8.38752L16.7424 8.43279C16.7582 8.47609 16.7898 8.5066 16.8056 8.55088C16.8056 8.56565 16.8214 8.57942 16.8214 8.59517L16.8689 8.71228L16.9332 8.90419C16.9332 8.91994 16.949 8.94848 16.949 8.96422L16.9976 9.09708L17.0439 9.27425L17.0925 9.51046C17.1072 9.58328 17.1072 9.64332 17.123 9.71812C17.1399 9.83524 17.1547 9.95236 17.1547 10.0714L17.1705 10.2781V10.4405C17.1705 10.4563 17.1705 10.4691 17.1547 10.4848L17.1083 10.5271C17.0777 10.5498 17.0608 10.5714 17.0302 10.5872C16.9986 10.6019 16.9659 10.6157 16.9353 10.6265C16.9026 10.6423 16.8562 10.6423 16.8246 10.6423C16.794 10.6423 16.7603 10.6265 16.7297 10.6127C16.7128 10.6127 16.6981 10.597 16.6823 10.5921C16.6496 10.5783 16.6179 10.5537 16.6032 10.5281C16.5715 10.4986 16.5547 10.4691 16.5547 10.4385L16.5399 10.3952V10.0872C16.5399 9.9563 16.523 9.83524 16.5072 9.70827C16.4914 9.57541 16.4608 9.42778 16.4292 9.29491C16.3986 9.20634 16.3817 9.11777 16.3501 9.03902L16.3185 8.94946L16.2879 8.87565L16.271 8.84613L16.2236 8.72803L16.1761 8.63946L16.097 8.49282L16.0243 8.37472V8.35602L15.9937 8.30977L15.962 8.27237L15.9146 8.19856L15.8661 8.13853L15.7722 8.02141C15.7237 7.96138 15.6773 7.90332 15.6225 7.84624C15.6077 7.83147 15.5919 7.8177 15.5919 7.80195L15.5603 7.77341L15.5423 7.75766L15.5107 7.74388L15.4791 7.71731V7.57363L15.3536 7.46242L15.2745 7.3955V7.38172L15.2429 7.35121L15.2028 7.32267L15.187 7.30692C15.187 7.29216 15.1701 7.29216 15.1564 7.29216L15.1079 7.27641L15.0921 7.26165L15.0278 7.21737L15.013 7.20162L14.9961 7.18686C14.9835 7.1721 14.9719 7.17209 14.9645 7.17209L14.9012 7.12781L14.8843 7.11206L14.8211 7.08352L14.8095 7.06778L14.762 7.03924L14.7304 7.02349L14.6988 6.99495L14.6682 6.96444H14.6513C14.6207 6.9359 14.588 6.92114 14.5406 6.90539L14.4942 6.87587L14.4625 6.86209L14.4457 6.84634L14.3982 6.81682L14.3518 6.80206L14.2886 6.77253L14.24 6.75777L14.2242 6.74202L14.1652 6.72825V6.71644L14.0692 6.68691L14.006 6.65739L13.9743 6.64262H13.911C13.8794 6.62786 13.8636 6.62786 13.832 6.6131H13.7856L13.7381 6.59735H13.6917L13.6432 6.58358L13.6126 6.56783H13.5483L13.484 6.55307L13.4534 6.53732H13.2794L13.2066 6.52256H12.8365L12.788 6.50681C12.7574 6.49303 12.7247 6.47827 12.6931 6.44776C12.6783 6.41824 12.6456 6.38871 12.6298 6.36017C12.614 6.32967 12.5982 6.30014 12.5982 6.27062V6.18204C12.6045 6.13677 12.6151 6.10823 12.6298 6.07871C12.6383 6.06395 12.6456 6.04918 12.6615 6.03442C12.6804 6.0049 12.7089 5.97537 12.7406 5.96061C12.7564 5.94585 12.7722 5.94585 12.787 5.93207C12.8196 5.91632 12.8513 5.91632 12.8829 5.91632H12.9462L12.9314 5.97045H12.9314ZM13.4102 7.57371C13.426 7.57371 13.4418 7.57371 13.4566 7.57764C13.4734 7.57764 13.4892 7.57764 13.5051 7.57961L13.5599 7.58453C13.6696 7.59339 13.7845 7.60815 13.8952 7.6298L14.0049 7.65244L14.0323 7.66031L14.1525 7.68885L14.2147 7.70854L14.2632 7.72428C14.3107 7.73806 14.3592 7.76857 14.4056 7.78333L14.4225 7.79809L14.4857 7.82762L14.5806 7.87289L14.6112 7.88667C14.6281 7.90241 14.6439 7.90241 14.6597 7.91619C14.6755 7.93194 14.7072 7.94571 14.723 7.96048C14.7873 7.99 14.8337 8.03429 14.8812 8.06381L14.9919 8.15239L15.0868 8.24194L15.1511 8.31477L15.1817 8.34331L15.2133 8.37382L15.2597 8.43287L15.3557 8.56573L15.4348 8.69859L15.4981 8.81668L15.5466 8.92002C15.593 9.02237 15.6098 9.11193 15.6415 9.21429C15.672 9.30385 15.6889 9.40721 15.7047 9.49479L15.7206 9.64241L15.7374 9.77626V9.83432C15.7374 9.87861 15.7206 9.90813 15.7058 9.93766C15.69 9.9662 15.6573 10.0105 15.6267 10.0262C15.5951 10.0548 15.5624 10.0705 15.516 10.0863C15.4854 10.1 15.4527 10.1 15.4211 10.1C15.3905 10.1 15.3578 10.1 15.3262 10.0863L15.2165 10.041C15.1849 10.0115 15.1532 9.9967 15.1205 9.95143C15.1047 9.92289 15.09 9.89239 15.0731 9.84908V9.68569L15.0573 9.58236L15.0415 9.46525L15.0246 9.36191L15.0077 9.30286C15.0077 9.2881 14.993 9.25858 14.993 9.24381C14.9613 9.12473 14.8981 9.00761 14.8348 8.8895L14.7705 8.83045L14.7209 8.77141L14.6734 8.72712L14.6576 8.69759L14.5785 8.63855L14.5142 8.57851L14.452 8.53423C14.4351 8.51946 14.4204 8.51946 14.3877 8.50569L14.2928 8.44565L14.2284 8.41613L14.1979 8.40137H14.181L14.1009 8.37086L14.0059 8.34133L13.911 8.32657H13.832L13.7856 8.31181L13.7487 8.30492H13.7012L13.6379 8.28917H13.369L13.3532 8.21536H13.3121C13.2805 8.21143 13.2541 8.2006 13.2277 8.18682C13.1908 8.16616 13.1602 8.14254 13.1328 8.10809C13.1138 8.07955 13.097 8.04806 13.0854 8.01952C13.0769 7.99098 13.0727 7.96047 13.0727 7.93094C13.0727 7.89453 13.0727 7.85713 13.0885 7.81974C13.1044 7.78135 13.1202 7.75085 13.1518 7.72132L13.2161 7.67703C13.2467 7.66129 13.2805 7.64751 13.311 7.64751L13.3764 7.5737H13.4102L13.4102 7.57371Z" fill="#8E8E8E"/>
</svg>
