<svg width="34" height="21" viewBox="0 0 34 21" fill="none" xmlns="http://www.w3.org/2000/svg">
<mask id="path-1-outside-1_602_8101" maskUnits="userSpaceOnUse" x="0.217773" y="0.000671387" width="33" height="21" fill="black">
<rect fill="white" x="0.217773" y="0.000671387" width="33" height="21"/>
<path d="M31.6262 17.2346C31.5904 17.1574 31.557 17.0934 31.526 17.0421C31.0131 16.1183 30.0328 14.9843 28.5859 13.6399L28.5553 13.6091L28.54 13.5941L28.5245 13.5786H28.509C27.8523 12.9526 27.4365 12.5316 27.2623 12.3161C26.9437 11.9056 26.8723 11.4901 27.0464 11.0691C27.1695 10.751 27.6316 10.0792 28.4318 9.05278C28.8528 8.50882 29.1861 8.07286 29.4323 7.74441C31.2078 5.38397 31.9776 3.87563 31.7414 3.21877L31.6497 3.06527C31.5881 2.97286 31.429 2.88832 31.1728 2.81122C30.9159 2.73428 30.5876 2.72156 30.1873 2.77283L25.7541 2.80346C25.6823 2.77801 25.5798 2.78038 25.4462 2.81122C25.3127 2.84206 25.246 2.85753 25.246 2.85753L25.1688 2.89608L25.1076 2.9424C25.0562 2.97302 24.9998 3.02688 24.9382 3.10388C24.8769 3.1806 24.8256 3.27064 24.7846 3.37324C24.302 4.61497 23.7532 5.76947 23.1373 6.83668C22.7576 7.47305 22.4089 8.02455 22.0904 8.49152C21.7723 8.95832 21.5055 9.30225 21.2902 9.52271C21.0745 9.74339 20.8799 9.92018 20.7051 10.0537C20.5305 10.1873 20.3973 10.2438 20.3051 10.2231C20.2126 10.2025 20.1255 10.182 20.0431 10.1615C19.8995 10.0691 19.784 9.94342 19.697 9.78436C19.6095 9.62531 19.5506 9.42512 19.5198 9.18396C19.4892 8.94263 19.4711 8.73506 19.4659 8.56053C19.4611 8.38622 19.4633 8.13966 19.4737 7.82156C19.4844 7.5033 19.4892 7.28796 19.4892 7.17506C19.4892 6.78503 19.4968 6.36174 19.5121 5.90507C19.5276 5.4484 19.5402 5.08657 19.5507 4.82001C19.5611 4.55319 19.566 4.27088 19.566 3.97327C19.566 3.67565 19.5479 3.44225 19.5121 3.27285C19.4767 3.10366 19.4224 2.93943 19.3509 2.78022C19.2789 2.62117 19.1735 2.49813 19.0353 2.41079C18.8968 2.32355 18.7246 2.25432 18.5196 2.20289C17.9757 2.0798 17.283 2.01321 16.4414 2.00286C14.5327 1.98237 13.3063 2.10562 12.7624 2.37245C12.5469 2.48519 12.3518 2.63923 12.1775 2.83408C11.9927 3.05993 11.9669 3.18319 12.1003 3.20346C12.7161 3.29571 13.1521 3.51639 13.4087 3.86527L13.5012 4.05015C13.5731 4.18354 13.6449 4.41969 13.7168 4.75828C13.7885 5.09687 13.8348 5.47143 13.8552 5.88172C13.9064 6.63099 13.9064 7.27237 13.8552 7.80593C13.8038 8.33969 13.7553 8.75522 13.709 9.05284C13.6627 9.35045 13.5935 9.59162 13.5012 9.77628C13.4087 9.96099 13.3472 10.0739 13.3163 10.1149C13.2856 10.1558 13.2599 10.1817 13.2395 10.1918C13.1061 10.2429 12.9674 10.269 12.8238 10.269C12.68 10.269 12.5057 10.197 12.3005 10.0533C12.0953 9.90956 11.8824 9.71212 11.6617 9.46065C11.441 9.20914 11.1922 8.85766 10.915 8.40617C10.638 7.95468 10.3506 7.42107 10.053 6.80536L9.8068 6.35883C9.65287 6.07156 9.4426 5.65328 9.17577 5.10437C8.90878 4.55523 8.67279 4.02406 8.46764 3.51094C8.38563 3.29544 8.26243 3.13137 8.09826 3.01847L8.02122 2.97216C7.97 2.93118 7.88777 2.88767 7.77498 2.84131C7.66203 2.79499 7.54417 2.76178 7.42092 2.74135L3.20314 2.77197C2.77214 2.77197 2.4797 2.86961 2.32571 3.06462L2.26409 3.15687C2.2333 3.20826 2.21777 3.29032 2.21777 3.40327C2.21777 3.51617 2.24856 3.65473 2.31019 3.8188C2.9259 5.2659 3.59548 6.66151 4.31893 8.00584C5.04237 9.35018 5.67103 10.4331 6.20452 11.2536C6.73813 12.0747 7.28203 12.8496 7.83623 13.578C8.39043 14.3067 8.75727 14.7736 8.93676 14.9788C9.11646 15.1843 9.25761 15.338 9.36021 15.4406L9.74512 15.8099C9.99141 16.0563 10.3531 16.3513 10.8303 16.695C11.3076 17.0389 11.836 17.3775 12.4158 17.7113C12.9958 18.0446 13.6704 18.3165 14.4402 18.5269C15.2098 18.7374 15.9589 18.8219 16.6876 18.7811H18.4579C18.8169 18.7501 19.0889 18.6372 19.2738 18.4424L19.335 18.3652C19.3762 18.304 19.4148 18.2088 19.4503 18.0808C19.4864 17.9525 19.5043 17.8112 19.5043 17.6575C19.4937 17.2163 19.5273 16.8186 19.6041 16.4646C19.6808 16.1107 19.7683 15.8439 19.8661 15.6642C19.9638 15.4847 20.0741 15.3332 20.1969 15.2103C20.3199 15.0873 20.4076 15.0127 20.4591 14.987C20.5102 14.9612 20.551 14.9437 20.5818 14.9332C20.8281 14.8511 21.1179 14.9306 21.4517 15.172C21.7853 15.4131 22.0982 15.7109 22.3909 16.0648C22.6833 16.419 23.0348 16.8164 23.4452 17.2576C23.8559 17.699 24.2149 18.0271 24.5227 18.2429L24.8304 18.4276C25.036 18.5509 25.3028 18.6638 25.6312 18.7664C25.9591 18.8689 26.2464 18.8946 26.493 18.8433L30.4336 18.7818C30.8233 18.7818 31.1266 18.7173 31.3417 18.5892C31.5573 18.461 31.6853 18.3197 31.7266 18.166C31.7678 18.0121 31.77 17.8375 31.7345 17.6423C31.698 17.4476 31.662 17.3115 31.6262 17.2346Z"/>
</mask>
<path d="M31.6262 17.2346C31.5904 17.1574 31.557 17.0934 31.526 17.0421C31.0131 16.1183 30.0328 14.9843 28.5859 13.6399L28.5553 13.6091L28.54 13.5941L28.5245 13.5786H28.509C27.8523 12.9526 27.4365 12.5316 27.2623 12.3161C26.9437 11.9056 26.8723 11.4901 27.0464 11.0691C27.1695 10.751 27.6316 10.0792 28.4318 9.05278C28.8528 8.50882 29.1861 8.07286 29.4323 7.74441C31.2078 5.38397 31.9776 3.87563 31.7414 3.21877L31.6497 3.06527C31.5881 2.97286 31.429 2.88832 31.1728 2.81122C30.9159 2.73428 30.5876 2.72156 30.1873 2.77283L25.7541 2.80346C25.6823 2.77801 25.5798 2.78038 25.4462 2.81122C25.3127 2.84206 25.246 2.85753 25.246 2.85753L25.1688 2.89608L25.1076 2.9424C25.0562 2.97302 24.9998 3.02688 24.9382 3.10388C24.8769 3.1806 24.8256 3.27064 24.7846 3.37324C24.302 4.61497 23.7532 5.76947 23.1373 6.83668C22.7576 7.47305 22.4089 8.02455 22.0904 8.49152C21.7723 8.95832 21.5055 9.30225 21.2902 9.52271C21.0745 9.74339 20.8799 9.92018 20.7051 10.0537C20.5305 10.1873 20.3973 10.2438 20.3051 10.2231C20.2126 10.2025 20.1255 10.182 20.0431 10.1615C19.8995 10.0691 19.784 9.94342 19.697 9.78436C19.6095 9.62531 19.5506 9.42512 19.5198 9.18396C19.4892 8.94263 19.4711 8.73506 19.4659 8.56053C19.4611 8.38622 19.4633 8.13966 19.4737 7.82156C19.4844 7.5033 19.4892 7.28796 19.4892 7.17506C19.4892 6.78503 19.4968 6.36174 19.5121 5.90507C19.5276 5.4484 19.5402 5.08657 19.5507 4.82001C19.5611 4.55319 19.566 4.27088 19.566 3.97327C19.566 3.67565 19.5479 3.44225 19.5121 3.27285C19.4767 3.10366 19.4224 2.93943 19.3509 2.78022C19.2789 2.62117 19.1735 2.49813 19.0353 2.41079C18.8968 2.32355 18.7246 2.25432 18.5196 2.20289C17.9757 2.0798 17.283 2.01321 16.4414 2.00286C14.5327 1.98237 13.3063 2.10562 12.7624 2.37245C12.5469 2.48519 12.3518 2.63923 12.1775 2.83408C11.9927 3.05993 11.9669 3.18319 12.1003 3.20346C12.7161 3.29571 13.1521 3.51639 13.4087 3.86527L13.5012 4.05015C13.5731 4.18354 13.6449 4.41969 13.7168 4.75828C13.7885 5.09687 13.8348 5.47143 13.8552 5.88172C13.9064 6.63099 13.9064 7.27237 13.8552 7.80593C13.8038 8.33969 13.7553 8.75522 13.709 9.05284C13.6627 9.35045 13.5935 9.59162 13.5012 9.77628C13.4087 9.96099 13.3472 10.0739 13.3163 10.1149C13.2856 10.1558 13.2599 10.1817 13.2395 10.1918C13.1061 10.2429 12.9674 10.269 12.8238 10.269C12.68 10.269 12.5057 10.197 12.3005 10.0533C12.0953 9.90956 11.8824 9.71212 11.6617 9.46065C11.441 9.20914 11.1922 8.85766 10.915 8.40617C10.638 7.95468 10.3506 7.42107 10.053 6.80536L9.8068 6.35883C9.65287 6.07156 9.4426 5.65328 9.17577 5.10437C8.90878 4.55523 8.67279 4.02406 8.46764 3.51094C8.38563 3.29544 8.26243 3.13137 8.09826 3.01847L8.02122 2.97216C7.97 2.93118 7.88777 2.88767 7.77498 2.84131C7.66203 2.79499 7.54417 2.76178 7.42092 2.74135L3.20314 2.77197C2.77214 2.77197 2.4797 2.86961 2.32571 3.06462L2.26409 3.15687C2.2333 3.20826 2.21777 3.29032 2.21777 3.40327C2.21777 3.51617 2.24856 3.65473 2.31019 3.8188C2.9259 5.2659 3.59548 6.66151 4.31893 8.00584C5.04237 9.35018 5.67103 10.4331 6.20452 11.2536C6.73813 12.0747 7.28203 12.8496 7.83623 13.578C8.39043 14.3067 8.75727 14.7736 8.93676 14.9788C9.11646 15.1843 9.25761 15.338 9.36021 15.4406L9.74512 15.8099C9.99141 16.0563 10.3531 16.3513 10.8303 16.695C11.3076 17.0389 11.836 17.3775 12.4158 17.7113C12.9958 18.0446 13.6704 18.3165 14.4402 18.5269C15.2098 18.7374 15.9589 18.8219 16.6876 18.7811H18.4579C18.8169 18.7501 19.0889 18.6372 19.2738 18.4424L19.335 18.3652C19.3762 18.304 19.4148 18.2088 19.4503 18.0808C19.4864 17.9525 19.5043 17.8112 19.5043 17.6575C19.4937 17.2163 19.5273 16.8186 19.6041 16.4646C19.6808 16.1107 19.7683 15.8439 19.8661 15.6642C19.9638 15.4847 20.0741 15.3332 20.1969 15.2103C20.3199 15.0873 20.4076 15.0127 20.4591 14.987C20.5102 14.9612 20.551 14.9437 20.5818 14.9332C20.8281 14.8511 21.1179 14.9306 21.4517 15.172C21.7853 15.4131 22.0982 15.7109 22.3909 16.0648C22.6833 16.419 23.0348 16.8164 23.4452 17.2576C23.8559 17.699 24.2149 18.0271 24.5227 18.2429L24.8304 18.4276C25.036 18.5509 25.3028 18.6638 25.6312 18.7664C25.9591 18.8689 26.2464 18.8946 26.493 18.8433L30.4336 18.7818C30.8233 18.7818 31.1266 18.7173 31.3417 18.5892C31.5573 18.461 31.6853 18.3197 31.7266 18.166C31.7678 18.0121 31.77 17.8375 31.7345 17.6423C31.698 17.4476 31.662 17.3115 31.6262 17.2346Z" stroke="#8E8E8E" stroke-width="2.8" mask="url(#path-1-outside-1_602_8101)"/>
</svg>
