<svg width="25" height="24" viewBox="0 0 25 24" fill="none" xmlns="http://www.w3.org/2000/svg">
<path d="M12.536 0C5.92884 0 0.550154 5.37405 0.547754 11.9813C0.546554 14.0933 1.09974 16.1551 2.14854 17.9719L0.521973 24L6.80088 22.5164C8.55168 23.4716 10.5226 23.973 12.529 23.9742H12.5337C19.1397 23.9742 24.516 18.599 24.5196 11.993C24.522 8.79017 23.2766 5.77888 21.0134 3.51328C18.7502 1.24888 15.7424 0.0012 12.536 0ZM12.5337 2.4C15.0969 2.4012 17.5057 3.40056 19.3165 5.21016C21.1273 7.02216 22.122 9.42983 22.1196 11.9906C22.1172 17.2754 17.8185 21.5742 12.5313 21.5742C10.9317 21.573 9.34726 21.1714 7.95166 20.4094L7.14307 19.9688L6.2501 20.1797L3.8876 20.7375L4.46416 18.5953L4.72432 17.6344L4.22744 16.7719C3.38984 15.3223 2.94655 13.6649 2.94775 11.9813C2.95015 6.69885 7.25009 2.4 12.5337 2.4ZM8.29385 6.45C8.09345 6.45 7.76943 6.525 7.49463 6.825C7.21983 7.1238 6.44463 7.84749 6.44463 9.32109C6.44463 10.7947 7.51807 12.2191 7.66807 12.4195C7.81687 12.6187 9.74007 15.7383 12.7845 16.9383C15.3141 17.9355 15.8278 17.7387 16.3774 17.6883C16.927 17.6391 18.1505 16.9652 18.4001 16.2656C18.6497 15.566 18.6503 14.9642 18.5759 14.8406C18.5015 14.7158 18.3017 14.6414 18.0017 14.4914C17.7029 14.3414 16.2304 13.6184 15.9556 13.5188C15.6808 13.4192 15.4798 13.3688 15.2806 13.6688C15.0814 13.9688 14.5089 14.6414 14.3337 14.8406C14.1585 15.041 13.9845 15.068 13.6845 14.918C13.3845 14.7668 12.4199 14.4497 11.2751 13.4297C10.3847 12.6365 9.78389 11.6578 9.60869 11.3578C9.43469 11.059 9.59229 10.8949 9.74229 10.7461C9.87669 10.6117 10.0399 10.3963 10.1899 10.2211C10.3387 10.0459 10.3903 9.92107 10.4899 9.72187C10.5895 9.52267 10.5386 9.34688 10.4642 9.19688C10.3898 9.04688 9.80712 7.5678 9.54072 6.975C9.31632 6.477 9.07932 6.46543 8.86572 6.45703C8.69172 6.44983 8.49305 6.45 8.29385 6.45Z" fill="#8E8E8E"/>
</svg>
